<?xml version="1.0" encoding="UTF-8" standalone="no"?><!DOCTYPE svg PUBLIC "-//W3C//DTD SVG 1.1//EN" "http://www.w3.org/Graphics/SVG/1.1/DTD/svg11.dtd"><svg version="1.1" xmlns="http://www.w3.org/2000/svg" xmlns:xlink="http://www.w3.org/1999/xlink" x="0px" y="0px" viewBox="0 0 1000 1000" enable-background="new 0 0 1000 1000" xml:space="preserve"><g><path d="M542.53 13.86C532.97 11.82 523.18 10.16 513.12 9.28C377.84 -2.56 258.46 97.52 246.62 232.9C234.78 368.18 334.86 487.56 470.24 499.4C480.3 500.28 490.13 500.34 500 500C379.94 474.74 294.82 363.4 305.79 238.08C316.75 112.76 419.92 17.79 542.53 13.86Z"/><path d="M100.17 220.09C93.62 227.34 87.32 235.02 81.58 243.26C3.68 354.59 30.72 507.93 141.96 585.82C253.29 663.72 406.63 636.68 484.52 525.45C490.26 517.22 495.32 508.73 499.9 499.99C418.12 591.41 279.13 609.37 176.02 537.21C73.02 465.05 42.33 328.26 100.17 220.09Z"/><path d="M57.64 706.23C60.64 715.53 64.15 724.77 68.37 733.87C125.77 856.94 272.17 910.31 395.25 852.81C518.42 795.43 571.69 649.01 514.19 525.94C509.97 516.83 505.11 508.18 499.91 499.89C538.18 616.67 484.29 746.07 370.23 799.23C256.26 852.4 122.5 810.48 57.64 706.23Z"/><path d="M457.47 986.14C467.03 988.18 476.82 989.84 486.88 990.72C622.16 1002.56 741.54 902.48 753.38 767.1C765.22 631.82 665.14 512.44 529.76 500.6C519.7 499.72 509.87 499.66 500 500C620.06 525.26 705.18 636.6 694.21 761.92C683.25 887.24 580.08 982.21 457.47 986.14Z"/><path d="M515.38 474.54C509.64 482.77 504.58 491.27 500.01 499.9C581.89 408.49 720.98 390.54 823.98 462.7C926.98 534.95 957.67 671.74 899.83 779.91C906.38 772.66 912.68 764.98 918.42 756.74C996.31 645.51 969.28 492.07 857.94 414.17C746.61 336.27 593.27 363.31 515.38 474.54Z"/><path d="M942.36 293.77C939.36 284.47 935.85 275.23 931.63 266.03C874.24 142.96 727.84 89.6 604.76 147.09C481.59 204.47 428.32 350.89 485.82 473.96C490.04 483.07 494.9 491.72 500.1 500.01C461.82 383.33 515.71 253.93 629.77 200.77C743.74 147.6 877.5 189.52 942.36 293.77Z"/><path d="M500 12C490.3 10.8 480.4 10 470.3 10C334.5 10 224.3 120.1 224.3 256C224.3 391.8 334.4 502 470.3 502C480.4 502 490.2 501.2 500 500C378.2 485.3 283.7 381.8 283.7 256C283.7 130.2 378.2 26.6 500 12Z"/><path d="M77.3 256C71.4 263.8 65.8 272 60.8 280.7C-7.1 398.4 33.2 548.8 150.8 616.7C268.5 684.6 418.9 644.3 486.8 526.7C491.8 518 496.1 509.1 499.9 500C426.4 598.2 289.5 628.2 180.5 565.3C71.6 502.4 29.1 368.8 77.3 256Z"/><path d="M77.3 744C81.1 753 85.4 761.9 90.4 770.6C158.3 888.2 308.8 928.6 426.4 860.6C544.1 792.7 584.4 642.2 516.4 524.6C511.4 515.9 505.8 507.7 499.9 499.9C548.2 612.9 505.8 746.5 396.8 809.4C287.9 872.3 151 842.2 77.3 744Z"/><path d="M500 988C509.7 989.2 519.6 990 529.7 990C665.5 990 775.7 879.9 775.7 744C775.7 608.2 665.6 498 529.7 498C519.6 498 509.8 498.8 500 500C621.8 514.7 716.3 618.2 716.3 744C716.3 869.8 621.8 973.4 500 988Z"/><path d="M513.1 473.3C508.1 482 503.8 490.9 500 499.9C573.6 401.7 710.6 371.7 819.5 434.6C928.4 497.6 970.9 631.2 922.7 744C928.6 736.2 934.2 728 939.2 719.3C1007.1 601.7 966.8 451.2 849.1 383.3C731.4 315.4 581 355.7 513.1 473.3Z"/><path d="M922.7 256C918.9 247 914.6 238.1 909.6 229.3C841.7 111.7 691.2 71.3 573.6 139.3C455.9 207.2 415.6 357.7 483.6 475.3C488.6 484 494.2 492.2 500.1 500C451.8 387.1 494.2 253.5 603.2 190.6C712.1 127.7 849 157.8 922.7 256Z"/></g></svg>