<?xml version="1.0" encoding="UTF-8" standalone="no"?><!DOCTYPE svg PUBLIC "-//W3C//DTD SVG 1.1//EN" "http://www.w3.org/Graphics/SVG/1.1/DTD/svg11.dtd"><svg version="1.1" xmlns="http://www.w3.org/2000/svg" xmlns:xlink="http://www.w3.org/1999/xlink" x="0px" y="0px" viewBox="0 0 1000 1000" enable-background="new 0 0 1000 1000" xml:space="preserve"><g><path d="M500 12C490.3 10.8 480.4 10 470.3 10C334.5 10 224.3 120.1 224.3 256C224.3 391.8 334.4 502 470.3 502C480.4 502 490.2 501.2 500 500C378.2 485.3 283.7 381.8 283.7 256C283.7 130.2 378.2 26.6 500 12Z"/><path d="M77.3 256C71.4 263.8 65.8 272 60.8 280.7C-7.1 398.4 33.2 548.8 150.8 616.7C268.5 684.6 418.9 644.3 486.8 526.7C491.8 518 496.1 509.1 499.9 500C426.4 598.2 289.5 628.2 180.5 565.3C71.6 502.4 29.1 368.8 77.3 256Z"/><path d="M77.3 744C81.1 753 85.4 761.9 90.4 770.6C158.3 888.2 308.8 928.6 426.4 860.6C544.1 792.7 584.4 642.2 516.4 524.6C511.4 515.9 505.8 507.7 499.9 499.9C548.2 612.9 505.8 746.5 396.8 809.4C287.9 872.3 151 842.2 77.3 744Z"/><path d="M500 988C509.7 989.2 519.6 990 529.7 990C665.5 990 775.7 879.9 775.7 744C775.7 608.2 665.6 498 529.7 498C519.6 498 509.8 498.8 500 500C621.8 514.7 716.3 618.2 716.3 744C716.3 869.8 621.8 973.4 500 988Z"/><path d="M513.1 473.3C508.1 482 503.8 490.9 500 499.9C573.6 401.7 710.6 371.7 819.5 434.6C928.4 497.6 970.9 631.2 922.7 744C928.6 736.2 934.2 728 939.2 719.3C1007.1 601.7 966.8 451.2 849.1 383.3C731.4 315.4 581 355.7 513.1 473.3Z"/><path d="M922.7 256C918.9 247 914.6 238.1 909.6 229.3C841.7 111.7 691.2 71.3 573.6 139.3C455.9 207.2 415.6 357.7 483.6 475.3C488.6 484 494.2 492.2 500.1 500C451.8 387.1 494.2 253.5 603.2 190.6C712.1 127.7 849 157.8 922.7 256Z"/></g></svg>