<?xml version="1.0" encoding="UTF-8" standalone="no"?>
<!DOCTYPE svg PUBLIC "-//W3C//DTD SVG 1.1//EN" "http://www.w3.org/Graphics/SVG/1.1/DTD/svg11.dtd">
<svg version="1.1" xmlns="http://www.w3.org/2000/svg" xmlns:xlink="http://www.w3.org/1999/xlink" x="0px" y="0px" viewBox="0 0 1000 1000" enable-background="new 0 0 1000 1000" xml:space="preserve"><g><path d="M987.94 400.1L988.49 400.18L989.03 400.28L989.56 400.4L990.09 400.54L990.6 400.7L991.11 400.88L991.61 401.08L992.1 401.3L992.57 401.53L993.04 401.79L993.5 402.06L993.94 402.35L994.37 402.65L994.79 402.97L995.2 403.31L995.6 403.66L995.98 404.02L996.34 404.4L996.69 404.8L997.03 405.21L997.35 405.63L997.65 406.06L997.94 406.5L998.21 406.96L998.47 407.43L998.7 407.9L998.92 408.39L999.12 408.89L999.3 409.4L999.46 409.91L999.6 410.44L999.72 410.97L999.82 411.51L999.9 412.06L999.95 412.61L999.99 413.17L1000 413.74L1000 886.26L999.99 886.83L999.95 887.39L999.9 887.94L999.82 888.49L999.72 889.03L999.6 889.56L999.46 890.09L999.3 890.6L999.12 891.11L998.92 891.61L998.7 892.1L998.47 892.57L998.21 893.04L997.94 893.5L997.65 893.94L997.35 894.38L997.03 894.8L996.69 895.2L996.34 895.6L995.98 895.98L995.6 896.34L995.2 896.69L994.79 897.03L994.37 897.35L993.94 897.65L993.5 897.94L993.04 898.21L992.57 898.47L992.1 898.7L991.61 898.92L991.11 899.12L990.6 899.3L990.09 899.46L989.56 899.6L989.03 899.72L988.49 899.82L987.94 899.9L987.39 899.96L986.83 899.99L986.26 900L13.74 900L13.17 899.99L12.61 899.96L12.06 899.9L11.51 899.82L10.97 899.72L10.44 899.6L9.91 899.46L9.4 899.3L8.89 899.12L8.39 898.92L7.9 898.7L7.43 898.47L6.96 898.21L6.5 897.94L6.06 897.65L5.63 897.35L5.21 897.03L4.8 896.69L4.4 896.34L4.02 895.98L3.66 895.6L3.31 895.2L2.97 894.8L2.65 894.38L2.35 893.94L2.06 893.5L1.79 893.04L1.53 892.57L1.3 892.1L1.08 891.61L0.88 891.11L0.7 890.6L0.54 890.09L0.4 889.56L0.28 889.03L0.18 888.49L0.1 887.94L0.05 887.39L0.01 886.83L0 886.26L0 413.74L0.01 413.17L0.05 412.61L0.1 412.06L0.18 411.51L0.28 410.97L0.4 410.44L0.54 409.91L0.7 409.4L0.88 408.89L1.08 408.39L1.3 407.9L1.53 407.43L1.79 406.96L2.06 406.5L2.35 406.06L2.65 405.63L2.97 405.21L3.31 404.8L3.66 404.4L4.02 404.02L4.4 403.66L4.8 403.31L5.21 402.97L5.63 402.65L6.06 402.35L6.5 402.06L6.96 401.79L7.43 401.53L7.9 401.3L8.39 401.08L8.89 400.88L9.4 400.7L9.91 400.54L10.44 400.4L10.97 400.28L11.51 400.18L12.06 400.1L12.61 400.05L13.17 400.01L13.74 400L75 400L75 811.26L75.01 811.83L75.05 812.39L75.1 812.94L75.18 813.49L75.28 814.03L75.4 814.56L75.54 815.09L75.7 815.6L75.88 816.11L76.08 816.61L76.3 817.1L76.53 817.57L76.79 818.04L77.06 818.5L77.35 818.94L77.65 819.38L77.97 819.8L78.31 820.2L78.66 820.6L79.02 820.98L79.4 821.34L79.8 821.69L80.21 822.03L80.63 822.35L81.06 822.65L81.5 822.94L81.96 823.21L82.43 823.47L82.9 823.7L83.39 823.92L83.89 824.12L84.4 824.3L84.91 824.46L85.44 824.6L85.97 824.72L86.51 824.82L87.06 824.9L87.61 824.96L88.17 824.99L88.74 825L911.26 825L911.83 824.99L912.39 824.96L912.94 824.9L913.49 824.82L914.03 824.72L914.56 824.6L915.09 824.46L915.6 824.3L916.11 824.12L916.61 823.92L917.1 823.7L917.57 823.47L918.04 823.21L918.5 822.94L918.94 822.65L919.37 822.35L919.79 822.03L920.2 821.69L920.6 821.34L920.98 820.98L921.34 820.6L921.69 820.2L922.03 819.8L922.35 819.38L922.65 818.94L922.94 818.5L923.21 818.04L923.47 817.57L923.7 817.1L923.92 816.61L924.12 816.11L924.3 815.6L924.46 815.09L924.6 814.56L924.72 814.03L924.82 813.49L924.9 812.94L924.95 812.39L924.99 811.83L925 811.26L925 400L986.26 400L986.83 400.01L987.39 400.05L987.39 400.05L987.94 400.1Z"></path><path d="M889.7 425C895.39 425 900 429.61 900 435.31C900 508.24 900 716.76 900 789.7C900 795.39 895.39 800 889.7 800C731.76 800 268.24 800 110.3 800C104.61 800 100 795.39 100 789.7C100 716.76 100 508.24 100 435.31C100 429.61 104.61 425 110.3 425C268.24 425 731.76 425 889.7 425Z"></path><path d="M602.56 93.62L603.17 93.68L603.78 93.76L604.38 93.86L604.97 93.98L605.55 94.13L606.12 94.29L606.68 94.47L607.24 94.68L607.78 94.9L608.31 95.14L608.82 95.4L609.33 95.67L609.82 95.97L610.3 96.28L610.76 96.6L611.22 96.94L611.65 97.3L612.07 97.67L612.48 98.06L612.87 98.46L613.24 98.88L613.59 99.3L613.93 99.75L614.25 100.2L614.55 100.66L614.83 101.14L615.09 101.62L615.33 102.12L615.55 102.63L615.75 103.15L615.93 103.67L616.09 104.21L616.22 104.75L616.33 105.3L616.42 105.86L616.48 106.42L616.52 106.99L616.53 107.57L616.51 108.69L616.5 109.81L616.52 110.92L616.56 112.04L616.61 113.15L616.68 114.26L616.77 115.37L616.88 116.48L617.01 117.58L617.16 118.68L617.32 119.78L617.5 120.88L617.7 121.97L617.92 123.06L618.16 124.15L618.41 125.23L618.68 126.31L618.97 127.38L619.28 128.45L619.61 129.52L619.95 130.58L620.31 131.63L620.69 132.68L621.08 133.73L621.5 134.77L621.93 135.8L622.37 136.83L622.84 137.86L623.32 138.87L623.82 139.88L624.33 140.89L624.87 141.88L625.42 142.87L625.98 143.86L626.57 144.83L627.17 145.8L627.78 146.76L628.42 147.71L629.07 148.66L629.73 149.6L630.6 150.85L631.44 152.11L632.26 153.39L633.06 154.67L633.84 155.96L634.6 157.27L635.34 158.58L636.05 159.9L636.74 161.23L637.41 162.57L638.06 163.91L638.69 165.27L639.29 166.63L639.87 168L640.43 169.38L640.97 170.76L641.48 172.15L641.98 173.55L642.44 174.95L642.89 176.36L643.32 177.78L643.72 179.2L644.09 180.63L644.45 182.06L644.78 183.5L645.09 184.94L645.38 186.39L645.64 187.84L645.88 189.29L646.1 190.75L646.29 192.22L646.46 193.68L646.6 195.15L646.72 196.62L646.82 198.1L646.9 199.57L646.95 201.05L646.97 202.53L646.97 204.02L646.95 205.5L646.96 206.32L646.96 207.14L646.96 207.96L646.95 208.79L646.93 209.61L646.9 210.43L646.87 211.25L646.83 212.07L646.78 212.88L646.73 213.7L646.67 214.52L646.6 215.34L646.52 216.15L646.44 216.97L646.35 217.79L646.26 218.6L646.15 219.41L646.04 220.23L645.93 221.04L645.8 221.85L645.67 222.66L645.53 223.47L645.39 224.28L645.23 225.08L645.07 225.89L644.91 226.69L644.74 227.5L644.56 228.3L644.37 229.1L644.17 229.9L643.97 230.7L643.77 231.5L643.55 232.29L643.33 233.09L643.1 233.88L642.87 234.67L642.62 235.46L642.37 236.25L642.12 237.04L641.86 237.82L641.76 238.09L641.66 238.35L641.55 238.61L641.44 238.86L641.32 239.12L641.2 239.37L641.07 239.62L640.94 239.86L640.8 240.11L640.65 240.35L640.5 240.58L640.35 240.82L640.19 241.05L640.03 241.28L639.86 241.51L639.69 241.73L639.51 241.95L639.33 242.16L639.14 242.38L638.95 242.58L638.76 242.79L638.56 242.99L638.35 243.19L638.15 243.39L637.93 243.58L637.72 243.76L637.5 243.95L637.27 244.13L637.04 244.3L636.81 244.47L636.58 244.64L636.34 244.81L636.09 244.97L635.84 245.12L635.59 245.27L635.34 245.42L635.08 245.56L634.82 245.7L634.55 245.83L634.29 245.96L634.02 246.08L633.74 246.2L633.47 246.31L633.19 246.42L632.91 246.52L632.63 246.62L632.35 246.71L632.07 246.8L631.78 246.88L631.5 246.96L631.21 247.03L630.92 247.1L630.63 247.16L630.34 247.21L630.05 247.26L629.75 247.31L629.46 247.35L629.16 247.38L628.87 247.41L628.57 247.44L628.28 247.46L627.98 247.47L627.68 247.48L627.39 247.48L627.09 247.48L626.79 247.47L626.49 247.46L626.2 247.44L625.9 247.41L625.6 247.38L625.31 247.35L625.01 247.31L624.72 247.26L624.42 247.21L624.13 247.15L623.84 247.09L623.55 247.02L623.25 246.95L622.97 246.87L622.68 246.79L622.39 246.7L622.11 246.61L621.82 246.51L621.55 246.41L621.27 246.3L621 246.18L620.73 246.07L620.46 245.94L620.19 245.82L619.93 245.68L619.67 245.55L619.42 245.41L619.17 245.26L618.92 245.11L618.67 244.96L618.43 244.8L618.19 244.63L617.96 244.47L617.72 244.3L617.5 244.12L617.27 243.94L617.05 243.76L616.84 243.57L616.62 243.38L616.42 243.18L616.21 242.98L616.01 242.78L615.82 242.58L615.63 242.37L615.44 242.15L615.26 241.93L615.08 241.71L614.91 241.49L614.74 241.26L614.57 241.03L614.41 240.8L614.26 240.56L614.11 240.32L613.97 240.08L613.83 239.83L613.69 239.58L613.56 239.33L613.44 239.07L613.32 238.82L613.21 238.56L613.1 238.31L613 238.05L612.91 237.78L612.82 237.52L612.74 237.26L612.66 236.99L612.59 236.73L612.52 236.46L612.46 236.19L612.4 235.92L612.36 235.65L612.31 235.38L612.27 235.11L612.24 234.84L612.22 234.57L612.2 234.3L612.18 234.02L612.17 233.75L612.17 233.48L612.17 233.2L612.18 232.93L612.2 232.66L612.22 232.38L612.24 232.11L612.28 231.84L612.31 231.57L612.36 231.29L612.41 231.02L612.46 230.75L612.52 230.48L612.59 230.21L612.67 229.94L612.74 229.68L612.83 229.41L612.92 229.15L613.11 228.57L613.29 227.99L613.47 227.42L613.65 226.84L613.81 226.26L613.98 225.68L614.14 225.1L614.29 224.51L614.44 223.93L614.58 223.35L614.72 222.76L614.85 222.17L614.98 221.59L615.11 221L615.22 220.41L615.34 219.82L615.45 219.23L615.55 218.64L615.65 218.05L615.74 217.45L615.83 216.86L615.91 216.27L615.99 215.67L616.06 215.08L616.13 214.48L616.19 213.88L616.25 213.29L616.3 212.69L616.35 212.09L616.39 211.5L616.43 210.9L616.46 210.3L616.49 209.7L616.51 209.1L616.52 208.5L616.53 207.9L616.54 207.3L616.54 206.7L616.54 206.1L616.53 205.5L616.55 204.38L616.55 203.26L616.53 202.15L616.5 201.03L616.44 199.92L616.37 198.81L616.28 197.7L616.17 196.59L616.04 195.49L615.9 194.39L615.73 193.29L615.55 192.19L615.35 191.1L615.13 190.01L614.89 188.92L614.64 187.84L614.37 186.76L614.08 185.69L613.77 184.62L613.45 183.55L613.1 182.49L612.74 181.44L612.36 180.39L611.97 179.34L611.56 178.3L611.13 177.27L610.68 176.24L610.21 175.21L609.73 174.2L609.23 173.19L608.72 172.18L608.18 171.19L607.63 170.2L607.07 169.21L606.48 168.24L605.88 167.27L605.27 166.31L604.63 165.36L603.98 164.41L603.32 163.47L602.45 162.22L601.61 160.96L600.79 159.68L599.99 158.4L599.21 157.11L598.45 155.8L597.72 154.49L597 153.17L596.31 151.84L595.64 150.5L594.99 149.16L594.37 147.8L593.76 146.44L593.18 145.07L592.62 143.69L592.09 142.31L591.57 140.92L591.08 139.52L590.61 138.12L590.16 136.71L589.74 135.29L589.34 133.87L588.96 132.44L588.61 131.01L588.27 129.57L587.96 128.13L587.68 126.68L587.42 125.23L587.18 123.78L586.96 122.32L586.77 120.85L586.6 119.39L586.45 117.92L586.33 116.45L586.23 114.97L586.16 113.5L586.11 112.02L586.08 110.54L586.08 109.05L586.1 107.57L586.12 106.99L586.15 106.42L586.22 105.86L586.3 105.3L586.41 104.75L586.54 104.21L586.7 103.67L586.88 103.15L587.08 102.63L587.3 102.12L587.54 101.62L587.8 101.14L588.08 100.66L588.38 100.2L588.7 99.75L589.04 99.3L589.39 98.88L589.76 98.46L590.15 98.06L590.56 97.67L590.98 97.3L591.41 96.94L591.87 96.6L592.33 96.28L592.81 95.97L593.3 95.67L593.81 95.4L594.32 95.14L594.85 94.9L595.39 94.68L595.94 94.47L596.51 94.29L597.08 94.13L597.66 93.98L598.25 93.86L598.85 93.76L599.45 93.68L600.06 93.62L600.69 93.59L601.31 93.58L601.94 93.59L602.56 93.62Z"></path><path d="M604.21 275.85L605.27 276.01L606.29 276.24L607.29 276.53L608.25 276.87L609.18 277.28L610.07 277.73L610.92 278.24L611.73 278.8L612.49 279.4L613.21 280.05L613.88 280.74L614.5 281.46L615.06 282.23L615.57 283.02L616.03 283.85L616.42 284.71L616.75 285.59L617.02 286.49L617.23 287.42L617.36 288.36L617.43 289.32L617.42 290.29L617.34 291.28L617.26 291.8L617.2 292.33L617.13 292.86L617.07 293.38L617.01 293.91L616.96 294.44L616.91 294.97L616.86 295.49L616.81 296.02L616.77 296.55L616.73 297.08L616.7 297.61L616.67 298.14L616.64 298.67L616.61 299.2L616.59 299.73L616.57 300.26L616.56 300.79L616.54 301.32L616.53 301.85L616.53 302.38L616.53 302.91L616.53 303.44L616.49 304.44L616.38 305.42L616.19 306.37L615.94 307.31L615.62 308.22L615.23 309.1L614.78 309.95L614.28 310.77L613.71 311.55L613.09 312.29L612.42 312.99L611.71 313.66L610.94 314.27L610.13 314.84L609.28 315.36L608.4 315.82L607.47 316.24L606.51 316.59L605.53 316.89L604.51 317.12L603.46 317.29L602.4 317.4L601.31 317.43L600.79 317.42L600.26 317.4L599.74 317.36L599.23 317.3L598.71 317.22L598.2 317.13L597.7 317.03L597.2 316.91L596.7 316.77L596.21 316.62L595.73 316.45L595.25 316.27L594.78 316.07L594.32 315.86L593.87 315.64L593.42 315.4L592.98 315.14L592.55 314.88L592.13 314.59L591.72 314.3L591.32 313.99L590.93 313.67L590.55 313.33L590.19 312.98L589.84 312.63L589.5 312.26L589.18 311.88L588.88 311.5L588.58 311.1L588.31 310.7L588.05 310.29L587.8 309.87L587.57 309.44L587.36 309.01L587.16 308.57L586.98 308.13L586.82 307.68L586.67 307.22L586.54 306.76L586.42 306.3L586.33 305.83L586.25 305.35L586.18 304.88L586.14 304.4L586.11 303.92L586.1 303.44L586.1 302.75L586.11 302.06L586.11 301.37L586.13 300.68L586.14 299.99L586.16 299.3L586.19 298.61L586.22 297.92L586.25 297.23L586.29 296.54L586.33 295.86L586.38 295.17L586.43 294.48L586.49 293.79L586.55 293.1L586.61 292.42L586.68 291.73L586.75 291.04L586.83 290.36L586.91 289.67L586.99 288.99L587.08 288.3L587.18 287.62L587.37 286.65L587.64 285.71L587.97 284.8L588.37 283.92L588.83 283.07L589.34 282.26L589.91 281.49L590.53 280.76L591.2 280.07L591.92 279.42L592.68 278.82L593.48 278.26L594.32 277.76L595.2 277.3L596.11 276.9L597.05 276.56L598.01 276.27L599 276.04L600.01 275.87L601.04 275.77L602.08 275.73L603.14 275.75L604.21 275.85Z"></path><path d="M481.76 163.67L482.81 163.84L483.82 164.08L484.81 164.37L485.77 164.73L486.69 165.14L487.58 165.6L488.43 166.12L489.24 166.69L490 167.3L490.72 167.96L491.39 168.67L492.01 169.41L492.57 170.19L493.08 171.01L493.52 171.86L493.91 172.74L494.23 173.65L494.48 174.58L494.67 175.54L494.78 176.52L494.82 177.52L494.82 178.05L494.82 178.58L494.83 179.11L494.84 179.64L494.85 180.17L494.87 180.7L494.89 181.23L494.91 181.76L494.94 182.29L494.96 182.82L495 183.35L495.03 183.88L495.07 184.41L495.11 184.93L495.16 185.46L495.21 185.99L495.26 186.52L495.31 187.05L495.37 187.57L495.43 188.1L495.5 188.63L495.56 189.15L495.64 189.68L495.7 190.2L495.74 190.72L495.76 191.24L495.76 191.76L495.74 192.28L495.7 192.8L495.63 193.31L495.55 193.82L495.45 194.33L495.32 194.83L495.18 195.32L495.02 195.82L494.84 196.3L494.64 196.78L494.41 197.26L494.18 197.72L493.92 198.18L493.64 198.63L493.34 199.07L493.03 199.5L492.7 199.92L492.35 200.33L491.98 200.74L491.59 201.12L491.2 201.5L490.78 201.85L490.36 202.2L489.92 202.52L489.47 202.83L489.01 203.13L488.54 203.41L488.06 203.67L487.57 203.92L487.07 204.15L486.56 204.36L486.04 204.55L485.51 204.73L484.98 204.89L484.44 205.03L483.9 205.15L483.35 205.26L482.79 205.35L482.23 205.41L481.67 205.46L481.1 205.49L480.53 205.5L479.54 205.47L478.57 205.38L477.62 205.24L476.68 205.04L475.77 204.79L474.88 204.49L474.02 204.15L473.18 203.75L472.38 203.31L471.61 202.83L470.87 202.3L470.17 201.74L469.51 201.13L468.89 200.49L468.31 199.81L467.78 199.11L467.29 198.36L466.85 197.59L466.47 196.79L466.13 195.97L465.86 195.12L465.64 194.24L465.48 193.34L465.38 192.66L465.29 191.97L465.21 191.29L465.13 190.6L465.05 189.92L464.98 189.23L464.91 188.54L464.85 187.85L464.79 187.17L464.73 186.48L464.68 185.79L464.63 185.1L464.59 184.41L464.55 183.72L464.52 183.04L464.49 182.35L464.46 181.66L464.44 180.97L464.42 180.28L464.41 179.59L464.4 178.9L464.4 178.21L464.4 177.52L464.43 176.52L464.55 175.54L464.73 174.58L464.99 173.65L465.31 172.74L465.69 171.86L466.14 171.01L466.65 170.19L467.21 169.41L467.83 168.67L468.5 167.96L469.22 167.3L469.98 166.69L470.79 166.12L471.64 165.6L472.53 165.14L473.45 164.73L474.41 164.37L475.4 164.08L476.42 163.84L477.46 163.67L478.52 163.57L479.61 163.53L480.7 163.57L481.76 163.67Z"></path><path d="M506.97 233.64L507.55 233.69L508.13 233.77L508.71 233.86L509.28 233.98L509.85 234.12L510.4 234.27L510.95 234.45L511.49 234.64L512.03 234.86L512.55 235.09L513.07 235.34L513.57 235.6L514.06 235.89L514.54 236.19L515.01 236.51L515.47 236.84L515.91 237.2L516.33 237.56L516.75 237.95L517.15 238.35L517.53 238.76L517.89 239.19L518.24 239.64L518.57 240.1L518.88 240.57L519.17 241.06L519.45 241.56L519.7 242.07L519.93 242.6L520.14 243.14L520.4 243.92L520.66 244.71L520.91 245.5L521.15 246.29L521.39 247.08L521.62 247.87L521.84 248.67L522.06 249.46L522.26 250.26L522.47 251.06L522.66 251.86L522.85 252.66L523.03 253.46L523.2 254.27L523.37 255.07L523.53 255.88L523.68 256.68L523.83 257.49L523.96 258.3L524.1 259.11L524.22 259.92L524.34 260.73L524.45 261.55L524.55 262.36L524.65 263.17L524.74 263.99L524.82 264.81L524.9 265.62L524.96 266.44L525.02 267.26L525.08 268.07L525.13 268.89L525.17 269.71L525.2 270.53L525.22 271.35L525.24 272.17L525.25 272.99L525.26 273.81L525.26 274.63L525.25 275.46L525.27 276.94L525.27 278.42L525.24 279.9L525.19 281.38L525.11 282.86L525.02 284.33L524.9 285.81L524.75 287.27L524.58 288.74L524.39 290.2L524.17 291.66L523.93 293.12L523.67 294.57L523.38 296.02L523.08 297.46L522.74 298.89L522.39 300.33L522.01 301.75L521.61 303.18L521.18 304.59L520.74 306L520.27 307.41L519.78 308.81L519.26 310.2L518.73 311.58L518.17 312.96L517.59 314.33L516.98 315.69L516.36 317.05L515.71 318.39L515.04 319.73L514.35 321.06L513.63 322.38L512.9 323.69L512.14 325L511.36 326.29L510.56 327.58L509.74 328.85L508.9 330.11L508.03 331.37L507.36 332.3L506.71 333.25L506.08 334.2L505.46 335.16L504.86 336.13L504.28 337.1L503.71 338.09L503.16 339.08L502.63 340.07L502.12 341.08L501.62 342.09L501.13 343.1L500.67 344.13L500.22 345.15L499.79 346.19L499.38 347.23L498.98 348.27L498.61 349.32L498.25 350.38L497.9 351.44L497.58 352.51L497.27 353.58L496.98 354.65L496.71 355.73L496.45 356.81L496.22 357.9L496 358.99L495.8 360.08L495.62 361.18L495.45 362.28L495.31 363.38L495.18 364.48L495.07 365.59L494.98 366.7L494.91 367.81L494.85 368.92L494.82 370.04L494.8 371.16L494.8 372.27L494.82 373.39L494.81 373.97L494.77 374.54L494.71 375.1L494.62 375.66L494.51 376.21L494.38 376.75L494.22 377.29L494.05 377.81L493.85 378.33L493.63 378.84L493.38 379.33L493.12 379.82L492.84 380.3L492.54 380.76L492.22 381.21L491.89 381.65L491.53 382.08L491.16 382.5L490.77 382.9L490.37 383.28L489.94 383.66L489.51 384.01L489.06 384.36L488.59 384.68L488.11 384.99L487.62 385.28L487.12 385.56L486.6 385.82L486.07 386.06L485.53 386.28L484.98 386.48L484.42 386.67L483.85 386.83L483.27 386.97L482.68 387.1L482.08 387.2L481.47 387.28L480.86 387.33L480.24 387.37L479.61 387.38L479.31 387.38L479.01 387.37L478.71 387.36L478.41 387.34L478.11 387.31L477.81 387.28L477.51 387.25L477.22 387.21L476.92 387.16L476.63 387.11L476.34 387.05L476.05 386.99L475.76 386.92L475.47 386.85L475.19 386.78L474.9 386.69L474.62 386.61L474.34 386.51L474.06 386.42L473.79 386.32L473.52 386.21L473.24 386.1L472.98 385.98L472.71 385.86L472.45 385.73L472.19 385.6L471.93 385.47L471.67 385.32L471.42 385.18L471.17 385.03L470.92 384.88L470.68 384.72L470.44 384.55L470.2 384.38L469.97 384.21L469.74 384.03L469.51 383.85L469.29 383.67L469.07 383.48L468.85 383.28L468.64 383.08L468.43 382.88L468.23 382.68L468.03 382.47L467.84 382.26L467.65 382.04L467.47 381.82L467.29 381.6L467.12 381.38L466.95 381.15L466.79 380.92L466.63 380.69L466.48 380.46L466.33 380.22L466.19 379.98L466.05 379.74L465.92 379.49L465.79 379.25L465.67 379L465.55 378.75L465.44 378.49L465.34 378.24L465.24 377.98L465.14 377.72L465.05 377.46L464.97 377.2L464.89 376.93L464.82 376.67L464.75 376.4L464.69 376.13L464.63 375.86L464.59 375.59L464.54 375.32L464.5 375.05L464.47 374.78L464.44 374.5L464.42 374.22L464.41 373.95L464.4 373.67L464.4 373.39L464.37 371.91L464.38 370.43L464.4 368.94L464.45 367.46L464.53 365.99L464.62 364.51L464.75 363.04L464.89 361.57L465.06 360.11L465.25 358.64L465.47 357.18L465.71 355.73L465.97 354.28L466.26 352.83L466.57 351.39L466.9 349.95L467.25 348.52L467.63 347.09L468.03 345.67L468.46 344.25L468.9 342.84L469.37 341.44L469.87 340.04L470.38 338.65L470.92 337.26L471.48 335.89L472.06 334.52L472.66 333.15L473.29 331.8L473.94 330.45L474.61 329.11L475.3 327.79L476.01 326.46L476.75 325.15L477.51 323.85L478.28 322.56L479.09 321.27L479.91 320L480.75 318.74L481.62 317.48L482.28 316.55L482.93 315.6L483.57 314.65L484.18 313.69L484.78 312.72L485.37 311.75L485.93 310.76L486.48 309.77L487.02 308.78L487.53 307.77L488.03 306.76L488.51 305.75L488.98 304.72L489.43 303.69L489.86 302.66L490.27 301.62L490.66 300.57L491.04 299.52L491.4 298.47L491.74 297.41L492.07 296.34L492.38 295.27L492.67 294.2L492.94 293.12L493.19 292.04L493.43 290.95L493.65 289.86L493.85 288.77L494.03 287.67L494.19 286.57L494.34 285.47L494.47 284.36L494.58 283.26L494.67 282.15L494.74 281.04L494.79 279.92L494.83 278.81L494.84 277.69L494.84 276.57L494.82 275.46L494.83 274.86L494.84 274.26L494.83 273.66L494.83 273.06L494.82 272.46L494.8 271.86L494.78 271.26L494.76 270.66L494.72 270.06L494.69 269.46L494.65 268.86L494.6 268.26L494.55 267.67L494.49 267.07L494.43 266.47L494.36 265.88L494.29 265.28L494.21 264.69L494.13 264.09L494.04 263.5L493.95 262.91L493.85 262.32L493.74 261.73L493.64 261.13L493.52 260.54L493.4 259.96L493.28 259.37L493.15 258.78L493.02 258.19L492.88 257.61L492.73 257.02L492.59 256.44L492.43 255.86L492.27 255.28L492.11 254.7L491.94 254.12L491.77 253.54L491.59 252.96L491.4 252.39L491.21 251.81L491.04 251.26L490.89 250.71L490.76 250.16L490.66 249.61L490.58 249.05L490.53 248.5L490.5 247.95L490.5 247.41L490.52 246.86L490.56 246.32L490.63 245.78L490.71 245.25L490.82 244.72L490.96 244.19L491.11 243.68L491.28 243.16L491.48 242.66L491.69 242.16L491.93 241.67L492.18 241.19L492.46 240.72L492.75 240.26L493.07 239.81L493.4 239.37L493.75 238.95L494.12 238.53L494.5 238.13L494.91 237.74L495.33 237.36L495.77 237L496.22 236.65L496.69 236.32L497.18 236L497.68 235.7L498.19 235.42L498.73 235.15L499.27 234.91L499.83 234.68L500.41 234.47L501 234.28L501.59 234.12L502.19 233.97L502.79 233.85L503.39 233.75L503.99 233.68L504.59 233.63L505.19 233.6L505.78 233.59L506.38 233.6L506.97 233.64Z"></path><path d="M725.17 163.67L726.21 163.84L727.23 164.08L728.21 164.37L729.17 164.73L730.1 165.14L730.98 165.6L731.83 166.12L732.64 166.69L733.41 167.3L734.13 167.96L734.79 168.67L735.41 169.41L735.98 170.19L736.48 171.01L736.93 171.86L737.32 172.74L737.64 173.65L737.89 174.58L738.08 175.54L738.19 176.52L738.23 177.52L738.23 178.05L738.23 178.58L738.23 179.11L738.24 179.64L738.26 180.17L738.27 180.7L738.29 181.23L738.31 181.76L738.34 182.29L738.37 182.82L738.4 183.35L738.43 183.88L738.47 184.41L738.51 184.93L738.56 185.46L738.61 185.99L738.66 186.52L738.71 187.05L738.77 187.57L738.83 188.1L738.9 188.63L738.96 189.15L739.04 189.68L739.1 190.2L739.14 190.72L739.16 191.24L739.16 191.76L739.14 192.28L739.1 192.8L739.04 193.31L738.95 193.82L738.85 194.33L738.73 194.83L738.58 195.32L738.42 195.82L738.24 196.3L738.04 196.78L737.82 197.26L737.58 197.72L737.32 198.18L737.04 198.63L736.74 199.07L736.43 199.5L736.1 199.92L735.75 200.33L735.38 200.74L735 201.12L734.6 201.5L734.19 201.85L733.76 202.2L733.32 202.52L732.88 202.83L732.42 203.13L731.94 203.41L731.46 203.67L730.97 203.92L730.47 204.15L729.96 204.36L729.45 204.55L728.92 204.73L728.39 204.89L727.85 205.03L727.3 205.15L726.75 205.26L726.2 205.35L725.64 205.41L725.08 205.46L724.51 205.49L723.94 205.5L722.95 205.47L721.98 205.38L721.02 205.24L720.09 205.04L719.18 204.79L718.29 204.49L717.43 204.15L716.59 203.75L715.79 203.31L715.02 202.83L714.28 202.3L713.58 201.74L712.92 201.13L712.3 200.49L711.72 199.81L711.18 199.11L710.7 198.36L710.26 197.59L709.87 196.79L709.54 195.97L709.26 195.12L709.04 194.24L708.88 193.34L708.79 192.66L708.7 191.97L708.61 191.29L708.53 190.6L708.46 189.92L708.38 189.23L708.31 188.54L708.25 187.85L708.19 187.17L708.14 186.48L708.08 185.79L708.04 185.1L708 184.41L707.96 183.72L707.92 183.04L707.89 182.35L707.87 181.66L707.85 180.97L707.83 180.28L707.82 179.59L707.81 178.9L707.8 178.21L707.8 177.52L707.84 176.52L707.95 175.54L708.14 174.58L708.39 173.65L708.71 172.74L709.1 171.86L709.55 171.01L710.06 170.19L710.62 169.41L711.24 168.67L711.91 167.96L712.62 167.3L713.39 166.69L714.2 166.12L715.04 165.6L715.93 165.14L716.86 164.73L717.81 164.37L718.8 164.08L719.82 163.84L720.86 163.67L721.93 163.57L723.01 163.53L724.1 163.57L725.17 163.67Z"></path><path d="M750.37 233.64L750.96 233.69L751.54 233.77L752.11 233.86L752.68 233.98L753.25 234.12L753.81 234.27L754.36 234.45L754.9 234.64L755.43 234.86L755.96 235.09L756.47 235.34L756.97 235.6L757.47 235.89L757.95 236.19L758.41 236.51L758.87 236.84L759.31 237.2L759.74 237.56L760.15 237.95L760.55 238.35L760.93 238.76L761.29 239.19L761.64 239.64L761.97 240.1L762.28 240.57L762.58 241.06L762.85 241.56L763.1 242.07L763.33 242.6L763.54 243.14L763.81 243.92L764.06 244.71L764.31 245.5L764.56 246.29L764.79 247.08L765.02 247.87L765.24 248.67L765.46 249.46L765.67 250.26L765.87 251.06L766.06 251.86L766.25 252.66L766.43 253.46L766.61 254.27L766.77 255.07L766.93 255.88L767.08 256.68L767.23 257.49L767.37 258.3L767.5 259.11L767.62 259.92L767.74 260.73L767.85 261.55L767.96 262.36L768.05 263.17L768.14 263.99L768.22 264.81L768.3 265.62L768.37 266.44L768.43 267.26L768.48 268.07L768.53 268.89L768.57 269.71L768.6 270.53L768.63 271.35L768.65 272.17L768.66 272.99L768.67 273.81L768.66 274.63L768.65 275.46L768.68 276.94L768.67 278.42L768.65 279.9L768.6 281.38L768.52 282.86L768.42 284.33L768.3 285.81L768.16 287.27L767.99 288.74L767.8 290.2L767.58 291.66L767.34 293.12L767.08 294.57L766.79 296.02L766.48 297.46L766.15 298.89L765.8 300.33L765.42 301.75L765.02 303.18L764.59 304.59L764.15 306L763.68 307.41L763.18 308.81L762.67 310.2L762.13 311.58L761.57 312.96L760.99 314.33L760.39 315.69L759.76 317.05L759.12 318.39L758.45 319.73L757.75 321.06L757.04 322.38L756.3 323.69L755.55 325L754.77 326.29L753.97 327.58L753.15 328.85L752.3 330.11L751.44 331.37L750.77 332.3L750.12 333.25L749.49 334.2L748.87 335.16L748.27 336.13L747.69 337.1L747.12 338.09L746.57 339.08L746.04 340.07L745.52 341.08L745.02 342.09L744.54 343.1L744.08 344.13L743.63 345.15L743.2 346.19L742.79 347.23L742.39 348.27L742.01 349.32L741.65 350.38L741.31 351.44L740.99 352.51L740.68 353.58L740.39 354.65L740.12 355.73L739.86 356.81L739.62 357.9L739.41 358.99L739.21 360.08L739.02 361.18L738.86 362.28L738.71 363.38L738.59 364.48L738.48 365.59L738.39 366.7L738.31 367.81L738.26 368.92L738.22 370.04L738.21 371.16L738.21 372.27L738.23 373.39L738.22 373.97L738.18 374.54L738.12 375.1L738.03 375.66L737.92 376.21L737.79 376.75L737.63 377.29L737.45 377.81L737.25 378.33L737.03 378.84L736.79 379.33L736.53 379.82L736.25 380.3L735.95 380.76L735.63 381.21L735.29 381.65L734.94 382.08L734.57 382.5L734.18 382.9L733.77 383.28L733.35 383.66L732.92 384.01L732.46 384.36L732 384.68L731.52 384.99L731.03 385.28L730.52 385.56L730.01 385.82L729.48 386.06L728.94 386.28L728.38 386.48L727.82 386.67L727.25 386.83L726.67 386.97L726.08 387.1L725.48 387.2L724.87 387.28L724.26 387.33L723.64 387.37L723.01 387.38L722.39 387.37L721.76 387.33L721.15 387.28L720.55 387.2L719.95 387.1L719.36 386.97L718.78 386.83L718.21 386.67L717.64 386.48L717.09 386.28L716.55 386.06L716.02 385.82L715.51 385.56L715 385.28L714.51 384.99L714.03 384.68L713.57 384.36L713.11 384.01L712.68 383.66L712.26 383.28L711.85 382.9L711.46 382.5L711.09 382.08L710.74 381.65L710.4 381.21L710.08 380.76L709.78 380.3L709.5 379.82L709.24 379.33L709 378.84L708.78 378.33L708.58 377.81L708.4 377.29L708.25 376.75L708.11 376.21L708 375.66L707.92 375.1L707.85 374.54L707.82 373.97L707.8 373.39L707.78 371.91L707.78 370.43L707.81 368.94L707.86 367.46L707.93 365.99L708.03 364.51L708.15 363.04L708.3 361.57L708.47 360.11L708.66 358.64L708.88 357.18L709.12 355.73L709.38 354.28L709.66 352.83L709.97 351.39L710.31 349.95L710.66 348.52L711.04 347.09L711.44 345.67L711.86 344.25L712.31 342.84L712.78 341.44L713.27 340.04L713.79 338.65L714.32 337.26L714.88 335.89L715.46 334.52L716.07 333.15L716.69 331.8L717.34 330.45L718.01 329.11L718.7 327.79L719.42 326.46L720.15 325.15L720.91 323.85L721.69 322.56L722.49 321.27L723.31 320L724.15 318.74L725.02 317.48L725.68 316.55L726.33 315.6L726.97 314.65L727.58 313.69L728.18 312.72L728.77 311.75L729.33 310.76L729.88 309.77L730.42 308.78L730.93 307.77L731.43 306.76L731.91 305.75L732.38 304.72L732.83 303.69L733.26 302.66L733.67 301.62L734.06 300.57L734.44 299.52L734.8 298.47L735.15 297.41L735.47 296.34L735.78 295.27L736.07 294.2L736.34 293.12L736.6 292.04L736.83 290.95L737.05 289.86L737.25 288.77L737.43 287.67L737.6 286.57L737.74 285.47L737.87 284.36L737.98 283.26L738.07 282.15L738.14 281.04L738.2 279.92L738.23 278.81L738.25 277.69L738.25 276.57L738.23 275.46L738.24 274.86L738.24 274.26L738.24 273.66L738.24 273.06L738.23 272.46L738.21 271.86L738.19 271.26L738.16 270.66L738.13 270.06L738.09 269.46L738.05 268.86L738.01 268.26L737.95 267.67L737.9 267.07L737.83 266.47L737.77 265.88L737.69 265.28L737.62 264.69L737.53 264.09L737.45 263.5L737.35 262.91L737.25 262.32L737.15 261.73L737.04 261.13L736.93 260.54L736.81 259.96L736.69 259.37L736.56 258.78L736.42 258.19L736.29 257.61L736.14 257.02L735.99 256.44L735.84 255.86L735.68 255.28L735.52 254.7L735.35 254.12L735.17 253.54L734.99 252.96L734.81 252.39L734.62 251.81L734.44 251.26L734.29 250.71L734.17 250.16L734.07 249.61L733.99 249.05L733.94 248.5L733.91 247.95L733.91 247.41L733.92 246.86L733.97 246.32L734.03 245.78L734.12 245.25L734.23 244.72L734.36 244.19L734.51 243.68L734.69 243.16L734.88 242.66L735.1 242.16L735.33 241.67L735.59 241.19L735.86 240.72L736.16 240.26L736.47 239.81L736.8 239.37L737.15 238.95L737.52 238.53L737.91 238.13L738.31 237.74L738.73 237.36L739.17 237L739.63 236.65L740.1 236.32L740.58 236L741.08 235.7L741.6 235.42L742.13 235.15L742.68 234.91L743.24 234.68L743.82 234.47L744.41 234.28L745 234.12L745.6 233.97L746.2 233.85L746.8 233.75L747.4 233.68L748 233.63L748.59 233.6L749.19 233.59L749.78 233.6L750.37 233.64Z"></path><path d="M359.16 93.62L359.77 93.68L360.38 93.76L360.98 93.86L361.57 93.98L362.15 94.13L362.72 94.29L363.28 94.47L363.83 94.68L364.37 94.9L364.9 95.14L365.42 95.4L365.92 95.67L366.41 95.97L366.89 96.28L367.36 96.6L367.81 96.94L368.24 97.3L368.67 97.67L369.07 98.06L369.46 98.46L369.83 98.88L370.19 99.3L370.52 99.75L370.84 100.2L371.14 100.66L371.42 101.14L371.68 101.62L371.93 102.12L372.15 102.63L372.34 103.15L372.52 103.67L372.68 104.21L372.81 104.75L372.92 105.3L373.01 105.86L373.07 106.42L373.11 106.99L373.12 107.57L373.1 108.69L373.1 109.81L373.12 110.92L373.15 112.04L373.21 113.15L373.28 114.26L373.37 115.37L373.48 116.48L373.61 117.58L373.75 118.68L373.92 119.78L374.1 120.88L374.3 121.97L374.52 123.06L374.75 124.15L375.01 125.23L375.28 126.31L375.57 127.38L375.88 128.45L376.2 129.52L376.55 130.58L376.91 131.63L377.28 132.68L377.68 133.73L378.09 134.77L378.52 135.8L378.97 136.83L379.43 137.86L379.92 138.87L380.42 139.88L380.93 140.89L381.46 141.88L382.01 142.87L382.58 143.86L383.16 144.83L383.76 145.8L384.38 146.76L385.01 147.71L385.66 148.66L386.33 149.6L387.2 150.85L388.04 152.11L388.86 153.39L389.66 154.67L390.44 155.96L391.2 157.27L391.93 158.58L392.65 159.9L393.34 161.23L394.01 162.57L394.66 163.91L395.28 165.27L395.89 166.63L396.47 168L397.03 169.38L397.56 170.76L398.08 172.15L398.57 173.55L399.04 174.95L399.48 176.36L399.91 177.78L400.31 179.2L400.69 180.63L401.04 182.06L401.38 183.5L401.68 184.94L401.97 186.39L402.23 187.84L402.47 189.29L402.69 190.75L402.88 192.22L403.05 193.68L403.19 195.15L403.32 196.62L403.41 198.1L403.49 199.57L403.54 201.05L403.57 202.53L403.57 204.02L403.55 205.5L403.56 206.32L403.56 207.14L403.55 207.96L403.54 208.79L403.52 209.61L403.5 210.43L403.46 211.25L403.42 212.07L403.38 212.88L403.32 213.7L403.26 214.52L403.19 215.34L403.12 216.15L403.03 216.97L402.95 217.79L402.85 218.6L402.75 219.41L402.64 220.23L402.52 221.04L402.39 221.85L402.26 222.66L402.12 223.47L401.98 224.28L401.83 225.08L401.67 225.89L401.5 226.69L401.33 227.5L401.15 228.3L400.96 229.1L400.77 229.9L400.57 230.7L400.36 231.5L400.14 232.29L399.92 233.09L399.69 233.88L399.46 234.67L399.22 235.46L398.97 236.25L398.71 237.04L398.45 237.82L398.35 238.09L398.25 238.35L398.14 238.61L398.03 238.86L397.91 239.12L397.79 239.37L397.66 239.62L397.53 239.86L397.39 240.11L397.25 240.35L397.1 240.58L396.94 240.82L396.79 241.05L396.62 241.28L396.45 241.51L396.28 241.73L396.11 241.95L395.92 242.16L395.74 242.38L395.55 242.58L395.35 242.79L395.15 242.99L394.95 243.19L394.74 243.39L394.53 243.58L394.31 243.76L394.09 243.95L393.87 244.13L393.64 244.3L393.41 244.47L393.17 244.64L392.93 244.81L392.69 244.97L392.44 245.12L392.19 245.27L391.94 245.42L391.68 245.56L391.42 245.7L391.15 245.83L390.89 245.96L390.61 246.08L390.34 246.2L390.07 246.31L389.79 246.42L389.51 246.52L389.23 246.62L388.95 246.71L388.66 246.8L388.38 246.88L388.09 246.96L387.8 247.03L387.51 247.1L387.22 247.16L386.93 247.21L386.64 247.26L386.35 247.31L386.05 247.35L385.76 247.38L385.46 247.41L385.17 247.44L384.87 247.46L384.57 247.47L384.28 247.48L383.98 247.48L383.68 247.48L383.38 247.47L383.09 247.46L382.79 247.44L382.49 247.41L382.2 247.38L381.9 247.35L381.61 247.31L381.31 247.26L381.02 247.21L380.72 247.15L380.43 247.09L380.14 247.02L379.85 246.95L379.56 246.87L379.27 246.79L378.98 246.7L378.7 246.61L378.42 246.51L378.14 246.41L377.86 246.3L377.59 246.18L377.32 246.07L377.05 245.94L376.79 245.82L376.53 245.68L376.27 245.55L376.01 245.41L375.76 245.26L375.51 245.11L375.27 244.96L375.02 244.8L374.79 244.63L374.55 244.47L374.32 244.3L374.09 244.12L373.87 243.94L373.65 243.76L373.43 243.57L373.22 243.38L373.01 243.18L372.81 242.98L372.61 242.78L372.41 242.58L372.22 242.37L372.03 242.15L371.85 241.93L371.67 241.71L371.5 241.49L371.33 241.26L371.17 241.03L371.01 240.8L370.85 240.56L370.7 240.32L370.56 240.08L370.42 239.83L370.28 239.58L370.16 239.33L370.03 239.07L369.91 238.82L369.8 238.56L369.7 238.31L369.6 238.05L369.5 237.78L369.41 237.52L369.33 237.26L369.25 236.99L369.18 236.73L369.11 236.46L369.05 236.19L369 235.92L368.95 235.65L368.91 235.38L368.87 235.11L368.84 234.84L368.81 234.57L368.79 234.3L368.78 234.02L368.77 233.75L368.77 233.48L368.77 233.2L368.78 232.93L368.79 232.66L368.82 232.38L368.84 232.11L368.87 231.84L368.91 231.57L368.96 231.29L369.01 231.02L369.06 230.75L369.12 230.48L369.19 230.21L369.26 229.94L369.34 229.68L369.43 229.41L369.52 229.15L369.71 228.57L369.89 227.99L370.07 227.42L370.24 226.84L370.41 226.26L370.58 225.68L370.74 225.1L370.89 224.51L371.04 223.93L371.18 223.35L371.32 222.76L371.45 222.17L371.58 221.59L371.71 221L371.82 220.41L371.94 219.82L372.04 219.23L372.15 218.64L372.25 218.05L372.34 217.45L372.43 216.86L372.51 216.27L372.59 215.67L372.66 215.08L372.73 214.48L372.79 213.88L372.85 213.29L372.9 212.69L372.95 212.09L372.99 211.5L373.02 210.9L373.05 210.3L373.08 209.7L373.1 209.1L373.12 208.5L373.13 207.9L373.13 207.3L373.14 206.7L373.13 206.1L373.12 205.5L373.14 204.38L373.14 203.26L373.13 202.15L373.09 201.03L373.04 199.92L372.97 198.81L372.87 197.7L372.77 196.59L372.64 195.49L372.49 194.39L372.33 193.29L372.15 192.19L371.95 191.1L371.73 190.01L371.49 188.92L371.24 187.84L370.96 186.76L370.67 185.69L370.37 184.62L370.04 183.55L369.7 182.49L369.34 181.44L368.96 180.39L368.56 179.34L368.15 178.3L367.72 177.27L367.27 176.24L366.81 175.21L366.33 174.2L365.83 173.19L365.31 172.18L364.78 171.19L364.23 170.2L363.67 169.21L363.08 168.24L362.48 167.27L361.87 166.31L361.23 165.36L360.58 164.41L359.92 163.47L359.05 162.22L358.21 160.96L357.39 159.68L356.58 158.4L355.81 157.11L355.05 155.8L354.31 154.49L353.6 153.17L352.91 151.84L352.24 150.5L351.59 149.16L350.96 147.8L350.36 146.44L349.78 145.07L349.22 143.69L348.68 142.31L348.17 140.92L347.67 139.52L347.2 138.12L346.76 136.71L346.33 135.29L345.93 133.87L345.55 132.44L345.2 131.01L344.87 129.57L344.56 128.13L344.27 126.68L344.01 125.23L343.77 123.78L343.55 122.32L343.36 120.85L343.19 119.39L343.05 117.92L342.92 116.45L342.83 114.97L342.75 113.5L342.7 112.02L342.68 110.54L342.67 109.05L342.7 107.57L342.71 106.99L342.75 106.42L342.81 105.86L342.89 105.3L343 104.75L343.14 104.21L343.29 103.67L343.47 103.15L343.67 102.63L343.89 102.12L344.13 101.62L344.39 101.14L344.67 100.66L344.97 100.2L345.29 99.75L345.63 99.3L345.99 98.88L346.36 98.46L346.75 98.06L347.15 97.67L347.57 97.3L348.01 96.94L348.46 96.6L348.92 96.28L349.4 95.97L349.9 95.67L350.4 95.4L350.92 95.14L351.45 94.9L351.99 94.68L352.54 94.47L353.1 94.29L353.67 94.13L354.25 93.98L354.84 93.86L355.44 93.76L356.05 93.68L356.66 93.62L357.28 93.59L357.91 93.58L358.54 93.59L359.16 93.62Z"></path><path d="M360.8 275.85L361.86 276.01L362.89 276.24L363.89 276.53L364.85 276.87L365.78 277.28L366.67 277.73L367.52 278.24L368.33 278.8L369.09 279.4L369.81 280.05L370.48 280.74L371.1 281.46L371.66 282.23L372.17 283.02L372.62 283.85L373.02 284.71L373.35 285.59L373.62 286.49L373.82 287.42L373.96 288.36L374.02 289.32L374.01 290.29L373.93 291.28L373.86 291.8L373.79 292.33L373.72 292.86L373.66 293.38L373.61 293.91L373.55 294.44L373.5 294.97L373.45 295.49L373.41 296.02L373.36 296.55L373.33 297.08L373.29 297.61L373.26 298.14L373.23 298.67L373.2 299.2L373.18 299.73L373.16 300.26L373.15 300.79L373.14 301.32L373.13 301.85L373.12 302.38L373.12 302.91L373.12 303.44L373.08 304.44L372.97 305.42L372.78 306.37L372.53 307.31L372.21 308.22L371.82 309.1L371.38 309.95L370.87 310.77L370.3 311.55L369.69 312.29L369.02 312.99L368.3 313.66L367.54 314.27L366.73 314.84L365.88 315.36L364.99 315.82L364.07 316.24L363.11 316.59L362.12 316.89L361.11 317.12L360.06 317.29L359 317.4L357.91 317.43L357.39 317.42L356.86 317.4L356.34 317.36L355.82 317.3L355.31 317.22L354.8 317.13L354.3 317.03L353.8 316.91L353.3 316.77L352.81 316.62L352.33 316.45L351.85 316.27L351.38 316.07L350.92 315.86L350.46 315.64L350.02 315.4L349.58 315.14L349.15 314.88L348.73 314.59L348.32 314.3L347.92 313.99L347.53 313.67L347.15 313.33L346.79 312.98L346.44 312.63L346.1 312.26L345.78 311.88L345.47 311.5L345.18 311.1L344.9 310.7L344.64 310.29L344.4 309.87L344.17 309.44L343.95 309.01L343.76 308.57L343.58 308.13L343.41 307.68L343.26 307.22L343.13 306.76L343.02 306.3L342.92 305.83L342.84 305.35L342.78 304.88L342.73 304.4L342.7 303.92L342.7 303.44L342.7 302.75L342.7 302.06L342.71 301.37L342.72 300.68L342.74 299.99L342.76 299.3L342.79 298.61L342.82 297.92L342.85 297.23L342.89 296.54L342.93 295.86L342.98 295.17L343.03 294.48L343.08 293.79L343.14 293.1L343.21 292.42L343.28 291.73L343.35 291.04L343.42 290.36L343.51 289.67L343.59 288.99L343.68 288.3L343.77 287.62L343.97 286.65L344.24 285.71L344.57 284.8L344.97 283.92L345.43 283.07L345.94 282.26L346.51 281.49L347.13 280.76L347.8 280.07L348.52 279.42L349.28 278.82L350.08 278.26L350.92 277.76L351.8 277.3L352.71 276.9L353.64 276.56L354.61 276.27L355.6 276.04L356.61 275.87L357.63 275.77L358.68 275.73L359.73 275.75L360.8 275.85Z"></path><path d="M238.36 163.67L239.4 163.84L240.42 164.08L241.41 164.37L242.36 164.73L243.29 165.14L244.18 165.6L245.03 166.12L245.83 166.69L246.6 167.3L247.32 167.96L247.99 168.67L248.6 169.41L249.17 170.19L249.67 171.01L250.12 171.86L250.51 172.74L250.83 173.65L251.08 174.58L251.27 175.54L251.38 176.52L251.42 177.52L251.42 178.05L251.42 178.58L251.43 179.11L251.44 179.64L251.45 180.17L251.46 180.7L251.48 181.23L251.5 181.76L251.53 182.29L251.56 182.82L251.59 183.35L251.63 183.88L251.66 184.41L251.71 184.93L251.75 185.46L251.8 185.99L251.85 186.52L251.91 187.05L251.96 187.57L252.02 188.1L252.09 188.63L252.16 189.15L252.23 189.68L252.29 190.2L252.33 190.72L252.35 191.24L252.35 191.76L252.33 192.28L252.29 192.8L252.23 193.31L252.15 193.82L252.04 194.33L251.92 194.83L251.78 195.32L251.61 195.82L251.43 196.3L251.23 196.78L251.01 197.26L250.77 197.72L250.51 198.18L250.23 198.63L249.94 199.07L249.62 199.5L249.29 199.92L248.94 200.33L248.57 200.74L248.19 201.12L247.79 201.5L247.38 201.85L246.95 202.2L246.52 202.52L246.07 202.83L245.61 203.13L245.14 203.41L244.65 203.67L244.16 203.92L243.66 204.15L243.15 204.36L242.64 204.55L242.11 204.73L241.58 204.89L241.04 205.03L240.49 205.15L239.94 205.26L239.39 205.35L238.83 205.41L238.26 205.46L237.69 205.49L237.12 205.5L236.14 205.47L235.17 205.38L234.21 205.24L233.28 205.04L232.37 204.79L231.48 204.49L230.62 204.15L229.78 203.75L228.98 203.31L228.21 202.83L227.47 202.3L226.77 201.74L226.11 201.13L225.49 200.49L224.91 199.81L224.37 199.11L223.89 198.36L223.45 197.59L223.06 196.79L222.73 195.97L222.45 195.12L222.23 194.24L222.07 193.34L221.97 192.66L221.89 191.97L221.8 191.29L221.72 190.6L221.64 189.92L221.57 189.23L221.5 188.54L221.44 187.85L221.38 187.17L221.33 186.48L221.28 185.79L221.23 185.1L221.19 184.41L221.15 183.72L221.11 183.04L221.09 182.35L221.06 181.66L221.04 180.97L221.02 180.28L221.01 179.59L221 178.9L221 178.21L221 177.52L221.03 176.52L221.15 175.54L221.33 174.58L221.59 173.65L221.91 172.74L222.29 171.86L222.74 171.01L223.25 170.19L223.81 169.41L224.43 168.67L225.1 167.96L225.82 167.3L226.58 166.69L227.39 166.12L228.24 165.6L229.12 165.14L230.05 164.73L231.01 164.37L231.99 164.08L233.01 163.84L234.05 163.67L235.12 163.57L236.2 163.53L237.29 163.57L238.36 163.67Z"></path><path d="M263.56 233.64L264.15 233.69L264.73 233.77L265.31 233.86L265.88 233.98L266.44 234.12L267 234.27L267.55 234.45L268.09 234.64L268.62 234.86L269.15 235.09L269.66 235.34L270.17 235.6L270.66 235.89L271.14 236.19L271.61 236.51L272.06 236.84L272.5 237.2L272.93 237.56L273.34 237.95L273.74 238.35L274.12 238.76L274.49 239.19L274.83 239.64L275.16 240.1L275.48 240.57L275.77 241.06L276.04 241.56L276.29 242.07L276.52 242.6L276.73 243.14L277 243.92L277.25 244.71L277.5 245.5L277.75 246.29L277.98 247.08L278.21 247.87L278.44 248.67L278.65 249.46L278.86 250.26L279.06 251.06L279.26 251.86L279.44 252.66L279.62 253.46L279.8 254.27L279.96 255.07L280.12 255.88L280.28 256.68L280.42 257.49L280.56 258.3L280.69 259.11L280.82 259.92L280.93 260.73L281.04 261.55L281.15 262.36L281.24 263.17L281.33 263.99L281.42 264.81L281.49 265.62L281.56 266.44L281.62 267.26L281.68 268.07L281.72 268.89L281.76 269.71L281.8 270.53L281.82 271.35L281.84 272.17L281.85 272.99L281.86 273.81L281.85 274.63L281.85 275.46L281.87 276.94L281.86 278.42L281.84 279.9L281.79 281.38L281.71 282.86L281.62 284.33L281.49 285.81L281.35 287.27L281.18 288.74L280.99 290.2L280.77 291.66L280.53 293.12L280.27 294.57L279.98 296.02L279.67 297.46L279.34 298.89L278.99 300.33L278.61 301.75L278.21 303.18L277.78 304.59L277.34 306L276.87 307.41L276.38 308.81L275.86 310.2L275.32 311.58L274.76 312.96L274.18 314.33L273.58 315.69L272.95 317.05L272.31 318.39L271.63 319.73L270.94 321.06L270.23 322.38L269.49 323.69L268.74 325L267.96 326.29L267.16 327.58L266.33 328.85L265.49 330.11L264.62 331.37L263.96 332.3L263.31 333.25L262.67 334.2L262.06 335.16L261.46 336.13L260.88 337.1L260.31 338.09L259.76 339.08L259.23 340.07L258.71 341.08L258.21 342.09L257.73 343.1L257.27 344.13L256.82 345.15L256.39 346.19L255.98 347.23L255.58 348.27L255.2 349.32L254.84 350.38L254.5 351.44L254.17 352.51L253.87 353.58L253.58 354.65L253.3 355.73L253.05 356.81L252.81 357.9L252.6 358.99L252.39 360.08L252.21 361.18L252.05 362.28L251.9 363.38L251.78 364.48L251.67 365.59L251.58 366.7L251.5 367.81L251.45 368.92L251.41 370.04L251.4 371.16L251.4 372.27L251.42 373.39L251.41 373.97L251.37 374.54L251.31 375.1L251.22 375.66L251.11 376.21L250.98 376.75L250.82 377.29L250.64 377.81L250.45 378.33L250.22 378.84L249.98 379.33L249.72 379.82L249.44 380.3L249.14 380.76L248.82 381.21L248.48 381.65L248.13 382.08L247.76 382.5L247.37 382.9L246.96 383.28L246.54 383.66L246.11 384.01L245.66 384.36L245.19 384.68L244.71 384.99L244.22 385.28L243.72 385.56L243.2 385.82L242.67 386.06L242.13 386.28L241.58 386.48L241.01 386.67L240.44 386.83L239.86 386.97L239.27 387.1L238.67 387.2L238.07 387.28L237.45 387.33L236.83 387.37L236.2 387.38L235.9 387.38L235.6 387.37L235.3 387.36L235 387.34L234.7 387.31L234.4 387.28L234.11 387.25L233.81 387.21L233.52 387.16L233.22 387.11L232.93 387.05L232.64 386.99L232.35 386.92L232.07 386.85L231.78 386.78L231.5 386.69L231.22 386.61L230.94 386.51L230.66 386.42L230.38 386.32L230.11 386.21L229.84 386.1L229.57 385.98L229.31 385.86L229.04 385.73L228.78 385.6L228.52 385.47L228.27 385.32L228.02 385.18L227.77 385.03L227.52 384.88L227.28 384.72L227.04 384.55L226.8 384.38L226.57 384.21L226.34 384.03L226.11 383.85L225.89 383.67L225.67 383.48L225.45 383.28L225.24 383.08L225.03 382.88L224.83 382.68L224.63 382.47L224.44 382.26L224.25 382.04L224.07 381.82L223.89 381.6L223.72 381.38L223.55 381.15L223.39 380.92L223.23 380.69L223.08 380.46L222.93 380.22L222.79 379.98L222.65 379.74L222.52 379.49L222.39 379.25L222.27 379L222.15 378.75L222.04 378.49L221.94 378.24L221.84 377.98L221.74 377.72L221.65 377.46L221.57 377.2L221.49 376.93L221.42 376.67L221.35 376.4L221.29 376.13L221.23 375.86L221.18 375.59L221.14 375.32L221.1 375.05L221.07 374.78L221.04 374.5L221.02 374.22L221.01 373.95L221 373.67L221 373.39L220.97 371.91L220.98 370.43L221 368.94L221.05 367.46L221.13 365.99L221.22 364.51L221.35 363.04L221.49 361.57L221.66 360.11L221.85 358.64L222.07 357.18L222.31 355.73L222.57 354.28L222.86 352.83L223.17 351.39L223.5 349.95L223.85 348.52L224.23 347.09L224.63 345.67L225.06 344.25L225.5 342.84L225.97 341.44L226.46 340.04L226.98 338.65L227.51 337.26L228.07 335.89L228.66 334.52L229.26 333.15L229.88 331.8L230.53 330.45L231.2 329.11L231.89 327.79L232.61 326.46L233.34 325.15L234.1 323.85L234.88 322.56L235.68 321.27L236.5 320L237.35 318.74L238.21 317.48L238.88 316.55L239.53 315.6L240.16 314.65L240.78 313.69L241.38 312.72L241.96 311.75L242.53 310.76L243.08 309.77L243.61 308.78L244.13 307.77L244.62 306.76L245.11 305.75L245.57 304.72L246.02 303.69L246.45 302.66L246.86 301.62L247.26 300.57L247.63 299.52L247.99 298.47L248.34 297.41L248.66 296.34L248.97 295.27L249.26 294.2L249.53 293.12L249.79 292.04L250.02 290.95L250.24 289.86L250.44 288.77L250.62 287.67L250.79 286.57L250.93 285.47L251.06 284.36L251.17 283.26L251.26 282.15L251.34 281.04L251.39 279.92L251.43 278.81L251.44 277.69L251.44 276.57L251.42 275.46L251.43 274.86L251.43 274.26L251.43 273.66L251.43 273.06L251.42 272.46L251.4 271.86L251.38 271.26L251.35 270.66L251.32 270.06L251.29 269.46L251.24 268.86L251.2 268.26L251.15 267.67L251.09 267.07L251.03 266.47L250.96 265.88L250.89 265.28L250.81 264.69L250.72 264.09L250.64 263.5L250.54 262.91L250.45 262.32L250.34 261.73L250.23 261.13L250.12 260.54L250 259.96L249.88 259.37L249.75 258.78L249.61 258.19L249.48 257.61L249.33 257.02L249.18 256.44L249.03 255.86L248.87 255.28L248.7 254.7L248.53 254.12L248.36 253.54L248.18 252.96L248 252.39L247.81 251.81L247.63 251.26L247.48 250.71L247.35 250.16L247.25 249.61L247.18 249.05L247.13 248.5L247.1 247.95L247.09 247.41L247.11 246.86L247.15 246.32L247.22 245.78L247.31 245.25L247.42 244.72L247.55 244.19L247.7 243.68L247.88 243.16L248.07 242.66L248.29 242.16L248.52 241.67L248.78 241.19L249.05 240.72L249.35 240.26L249.66 239.81L249.99 239.37L250.34 238.95L250.71 238.53L251.1 238.13L251.5 237.74L251.92 237.36L252.36 237L252.82 236.65L253.29 236.32L253.77 236L254.27 235.7L254.79 235.42L255.32 235.15L255.87 234.91L256.43 234.68L257.01 234.47L257.6 234.28L258.19 234.12L258.79 233.97L259.39 233.85L259.99 233.75L260.59 233.68L261.19 233.63L261.79 233.6L262.38 233.59L262.97 233.6L263.56 233.64Z"></path></g></svg>